<svg width="74" height="23" viewBox="0 0 74 23" fill="none" xmlns="http://www.w3.org/2000/svg">
<g clip-path="url(#clip0_90_224)">
<path d="M19.9848 5.64453H23.6396C27.1204 5.64453 29.731 8.16818 29.731 11.388C29.731 14.6078 27.1204 17.1314 23.6396 17.1314H19.9848V5.64453ZM23.6396 15.478C26.0762 15.478 27.8166 13.7376 27.8166 11.475C27.8166 9.21242 26.1632 7.472 23.6396 7.472H21.8992V15.478H23.6396Z" fill="#594D49"/>
<path d="M29.5569 13.1282C29.5569 10.7786 31.3844 8.95117 33.8209 8.95117C36.2575 8.95117 38.0849 10.8657 38.0849 13.1282C38.0849 15.4779 36.2575 17.3053 33.8209 17.3053C31.3844 17.3053 29.5569 15.4779 29.5569 13.1282ZM36.1705 13.1282C36.1705 11.7359 35.2132 10.6046 33.8209 10.6046C32.4286 10.6046 31.3844 11.7359 31.3844 13.1282C31.3844 14.5206 32.3416 15.6519 33.8209 15.6519C35.3002 15.6519 36.1705 14.6076 36.1705 13.1282Z" fill="#594D49"/>
<path d="M37.9979 5.64453H39.8253V12.7803L43.5672 9.03839H45.7427L41.8268 12.8674L45.6557 17.1314H43.3931L39.8253 13.0414V17.1314H37.9979V5.64453Z" fill="#594D49"/>
<path d="M50.8768 12.6061C50.8768 11.4748 50.3547 10.6046 49.2234 10.6046C48.4403 10.6046 47.8311 11.0397 47.4831 11.8229V17.2183H45.6556V9.0382H47.4831V9.8214C48.0052 9.21224 48.8754 8.95117 49.6585 8.95117C50.7898 8.95117 51.573 9.38628 52.0951 10.1695C52.7042 9.38628 53.6614 8.95117 54.7927 8.95117C56.8812 8.95117 57.9254 10.3435 57.9254 12.432V17.2183H56.098V12.6061C56.098 11.4748 55.5759 10.6046 54.4446 10.6046C53.6614 10.6046 53.0523 11.0397 52.7042 11.9099C52.7042 12.0839 52.7042 12.258 52.7042 12.432V17.2183H50.8768V12.6061Z" fill="#594D49"/>
<path d="M66.0182 5.64453H67.8456V9.82158C68.4548 9.21243 69.2379 8.95136 70.1081 8.95136C72.1096 8.95136 73.4149 10.3437 73.4149 12.4322V17.2185H71.5875V12.6063C71.5875 11.475 70.9783 10.6048 69.76 10.6048C68.8898 10.6048 68.1937 11.1269 67.8456 11.9101V17.2185H66.0182V5.64453Z" fill="#594D49"/>
<path d="M61.9283 17.3053C59.4917 17.3053 57.8384 15.5649 57.8384 13.1282C57.8384 10.7786 59.4917 8.95117 61.9283 8.95117C64.3648 8.95117 66.1052 10.8657 65.9312 13.5634H59.5788C59.6658 14.7817 60.536 15.7389 62.0153 15.7389C62.8855 15.7389 63.6687 15.3908 64.0168 14.6076H65.8442C65.4091 16.087 64.0168 17.3053 61.9283 17.3053ZM59.6658 12.258H64.1038C63.8427 10.9527 62.8855 10.3435 61.9283 10.3435C60.797 10.4305 59.9268 11.0397 59.6658 12.258Z" fill="#594D49"/>
<path d="M13.8934 22.8747L5.3655 14.3465C5.27848 14.2595 5.27848 14.0855 5.3655 13.9985L13.8934 5.47024C14.2415 5.12216 14.9377 5.55727 14.6766 5.99238C14.6766 5.99238 11.6309 11.3008 10.4126 13.5633C10.2386 13.9114 10.2386 14.3465 10.4126 14.6946C11.6309 16.9572 14.6766 22.2656 14.6766 22.2656C14.8506 22.7877 14.2415 23.2228 13.8934 22.8747Z" fill="#594D49"/>
<path d="M0.840459 0.162085L9.36839 8.69029C9.45541 8.77731 9.45541 8.95135 9.36839 9.03837L0.840459 17.5666C0.49238 17.9146 -0.203779 17.4795 0.0572803 17.0444C0.0572803 17.0444 3.01595 11.7361 4.23422 9.47348C4.40826 9.12539 4.40826 8.69029 4.23422 8.34221C3.01595 6.07962 0.0572803 0.771252 0.0572803 0.771252C-0.116759 0.249118 0.49238 -0.273027 0.840459 0.162085Z" fill="#594D49"/>
</g>
<defs>
<clipPath id="clip0_90_224">
<rect width="74" height="23" fill="white"/>
</clipPath>
</defs>
</svg>
