<svg width="311" height="109" viewBox="0 0 311 109" fill="none" xmlns="http://www.w3.org/2000/svg">
<path d="M7.60308 99.7342C6.82079 99.5314 6.15451 99.1276 5.60424 98.5228C5.05397 97.9181 4.67127 97.3048 4.45614 96.683C4.37847 96.1215 4.4134 95.6633 4.56093 95.3083C4.67976 94.9368 4.86206 94.621 5.10784 94.361C5.34755 94.0784 5.61374 93.8494 5.90642 93.6739C6.19304 93.4758 6.4744 93.3033 6.75051 93.1566L7.30538 93.1899C7.4489 93.2727 7.58939 93.3443 7.72685 93.4045C7.88695 93.4587 8.03573 93.5158 8.17319 93.5761C8.37531 93.4249 8.47475 93.2526 8.4715 93.0594C8.49089 92.8601 8.51027 92.6608 8.52966 92.4615C8.53085 92.1942 8.54336 91.924 8.56719 91.6507C8.59102 91.3774 8.63749 91.098 8.70659 90.8126C8.62936 90.6149 8.59215 90.4308 8.59496 90.2602C8.59778 90.0896 8.60666 89.9416 8.62161 89.8163C8.45545 89.7395 8.33841 89.7102 8.27049 89.7284C8.21914 89.7179 8.11949 89.7082 7.97152 89.6993C7.90361 89.7175 7.83569 89.7357 7.76777 89.7539C7.69379 89.7494 7.60849 89.748 7.51187 89.7497C7.10556 89.5916 6.82457 89.4485 6.66892 89.3204C6.52983 89.1636 6.37943 89.0097 6.21771 88.859C6.05598 88.7082 5.91165 88.577 5.78469 88.4654C5.65774 88.3539 5.5225 88.2566 5.37898 88.1738L4.89869 88.0113L4.99325 87.5492C5.02639 87.4918 5.03387 87.4291 5.01567 87.3612C4.9914 87.2707 4.91276 87.1583 4.77974 87.0241C4.63297 86.748 4.56402 86.5359 4.5729 86.388L4.53163 85.9623C4.67916 85.6073 4.75818 85.4041 4.76869 85.3528L5.01728 84.9222C5.50158 84.6469 5.99416 84.3572 6.49503 84.0531C6.98984 83.7264 7.47332 83.4028 7.94549 83.0821C8.41765 82.7615 8.90114 82.4378 9.39594 82.1111C9.89075 81.7844 10.3916 81.4804 10.8986 81.199C11.0372 80.992 11.2054 80.8498 11.4031 80.7726C11.6173 80.6667 11.812 80.5781 11.987 80.5069C12.1455 80.4645 12.2896 80.4137 12.4194 80.3547C12.5491 80.2957 12.6358 80.2118 12.6795 80.103C13.028 79.8641 13.3712 79.6508 13.7091 79.4632C14.3398 79.1001 15.1764 78.6454 16.219 78.0991C17.2615 77.5529 18.4581 77.0381 19.8088 76.5549L20.5128 76.3299C20.6547 76.3161 20.7936 76.291 20.9294 76.2546C21.0592 76.1956 21.192 76.1479 21.3278 76.1115C22.505 75.796 23.3831 75.949 23.9621 76.5703C24.2188 76.6228 24.462 76.7154 24.6916 76.848C24.9152 76.9579 25.1275 77.0709 25.3284 77.1869C25.4719 77.2698 25.6011 77.3443 25.7159 77.4106C25.8247 77.4543 25.9191 77.4897 25.9991 77.5167L26.3436 77.7156C26.7382 78.1922 26.926 78.7121 26.9071 79.2753C26.844 79.5833 26.7393 79.7812 26.593 79.869C26.4467 79.9567 26.3003 80.0444 26.154 80.1322L25.7762 80.4882C25.4759 80.5444 25.2464 80.5937 25.088 80.6362C24.9521 80.6726 24.7937 80.7151 24.6125 80.7636C23.9334 80.9456 23.1531 81.2032 22.2719 81.5364C21.4071 81.8409 20.5319 82.1967 19.6462 82.6039C18.7544 82.9884 17.8974 83.4122 17.0751 83.8751C16.2468 84.3155 15.5377 84.7481 14.9479 85.173C14.8032 85.3574 14.5989 85.5456 14.3349 85.7377C14.273 85.7785 14.1863 85.8624 14.0747 85.9893C14.1459 86.1644 14.1944 86.3455 14.2203 86.5327C14.2402 86.6972 14.2487 86.8648 14.2458 87.0354C14.2535 87.1547 14.2643 87.2852 14.278 87.4271C14.3084 87.5403 14.3304 87.6679 14.3442 87.8098C14.0204 88.5031 13.9729 89.2316 14.2018 89.9953L14.123 90.3804C14.0567 90.4952 14.0139 90.6523 13.9945 90.8516C13.9917 91.0222 14.0372 91.192 14.131 91.3609L14.376 91.732C14.8167 91.5654 15.246 91.4019 15.664 91.2413C16.0986 91.0521 16.5558 90.8568 17.0357 90.6554C17.6392 90.3724 18.2488 90.112 18.8645 89.8742C19.4968 89.6077 20.1638 89.3805 20.8656 89.1924L22.19 88.8376L21.9663 89.2251L22.3489 89.159L22.2908 89.7569C22.4674 89.7823 22.5958 89.8086 22.6758 89.8357C22.7725 89.8341 22.8608 89.8468 22.9408 89.8739L23.2695 90.1498C23.4009 90.1873 23.5331 90.2732 23.6662 90.4075C23.7931 90.519 23.9013 90.6963 23.9906 90.9392L23.9797 91.3061L22.9296 93.7713L22.7987 94.0975L22.4318 94.0867C21.9956 94.1793 21.6002 94.3337 21.2457 94.5501C21.0767 94.6439 20.8995 94.752 20.7139 94.8745C20.5223 94.9744 20.3246 95.0516 20.1209 95.1062C19.6018 95.3424 19.1702 95.5429 18.8262 95.7079C18.4761 95.8502 18.126 95.9926 17.776 96.1349C17.3022 96.3589 16.8397 96.5799 16.3885 96.7978C15.954 96.9871 15.5541 97.2155 15.1891 97.4832C14.9461 97.5726 14.802 97.6233 14.7568 97.6354C14.7054 97.6249 14.6571 97.6257 14.6118 97.6379C14.3854 97.6985 14.1681 97.7932 13.9599 97.9217C13.7518 98.0503 13.5549 98.1759 13.3693 98.2984C13.2638 98.448 13.2066 98.5967 13.1978 98.7447C13.1828 98.87 13.1709 99.0067 13.162 99.1546C13.1592 99.3252 13.1337 99.5019 13.0857 99.6847C13.0541 99.8387 13.003 100.01 12.9323 100.199L13.13 100.801C12.9384 100.901 12.8456 100.962 12.8517 100.985C12.8517 100.985 12.8404 100.988 12.8177 100.994C12.8663 101.175 12.8778 101.354 12.8523 101.531C12.8495 101.701 12.8437 101.86 12.8348 102.008C12.8138 102.111 12.8011 102.199 12.7966 102.273C12.7922 102.347 12.7991 102.418 12.8173 102.486C13.1528 102.833 13.3338 103.282 13.3601 103.833C13.3848 104.288 13.3181 104.718 13.1601 105.124C12.996 105.508 12.7684 105.836 12.4774 106.108C12.1273 106.25 11.8526 106.312 11.6533 106.292C11.4766 106.267 11.2886 106.244 11.0893 106.225C10.964 106.21 10.8417 106.206 10.7224 106.214C10.5971 106.199 10.4748 106.196 10.3555 106.203L9.85705 105.973C9.75273 105.855 9.64013 105.752 9.51925 105.663C9.3923 105.551 9.26534 105.44 9.13839 105.328C8.98274 105.2 8.82708 105.072 8.67142 104.944C8.51576 104.816 8.36536 104.662 8.22021 104.482C7.84943 103.733 7.63955 103.085 7.59059 102.54C7.5582 101.966 7.5628 101.395 7.60439 100.826C7.60114 100.633 7.60092 100.451 7.60373 100.28C7.60655 100.109 7.60633 99.9275 7.60308 99.7342ZM44.8175 94.0938C44.7848 94.5151 44.6872 94.9659 44.5248 95.4462C44.3789 95.8977 44.1673 96.3305 43.89 96.7445C43.6292 97.1298 43.3111 97.482 42.9356 97.801C42.56 98.12 42.1376 98.3545 41.6682 98.5045C41.3557 98.5155 41.1307 98.4908 40.9933 98.4306C40.8845 98.387 40.7644 98.3463 40.633 98.3088C40.553 98.2817 40.476 98.2659 40.402 98.2615C40.3446 98.2283 40.2902 98.2065 40.2389 98.196L39.7859 98.1354L39.8034 97.6575C39.8002 97.4643 39.7525 97.3315 39.6603 97.2591C39.562 97.1642 39.3868 97.0534 39.1345 96.9269C39.0484 96.8772 38.9623 96.8274 38.8761 96.7777C38.79 96.728 38.7152 96.6753 38.6517 96.6195L37.9016 96.1289L38.7548 95.6456C39.2783 95.3354 39.5972 95.0316 39.7116 94.734C39.8486 94.4304 39.8156 93.9904 39.6126 93.4139C39.1356 93.4447 38.7477 93.5365 38.449 93.6893C38.1728 93.8361 37.8885 93.9972 37.5958 94.1727C37.2186 94.3951 36.8271 94.6092 36.4212 94.815C36.0319 94.9921 35.5882 95.1474 35.0902 95.2808C34.9091 95.3293 34.7393 95.3748 34.5808 95.4173C34.4163 95.4371 34.2404 95.46 34.0532 95.4859L33.6954 95.5089C33.5834 95.272 33.5018 95.1483 33.4504 95.1378C33.393 95.1047 33.3356 95.0716 33.2782 95.0384C33.1347 94.9555 32.9707 94.8418 32.7864 94.697C32.6186 94.5236 32.5292 94.2807 32.5183 93.9682C32.3505 93.7947 32.228 93.6092 32.1507 93.4115C32.0877 93.7196 32.0616 94.0298 32.0726 94.3423L32.0277 94.7183L31.7064 94.8772C31.6671 94.912 31.6484 94.9777 31.65 95.0743C31.6455 95.1483 31.6494 95.2079 31.6615 95.2532L31.6464 95.876C31.6133 95.9334 31.5801 95.9908 31.547 96.0482C31.5078 96.083 31.4716 96.1291 31.4384 96.1865C31.4478 96.4024 31.4457 96.6213 31.4324 96.8432C31.4191 97.0652 31.4027 97.2758 31.3834 97.4751C31.349 97.7998 31.326 98.1214 31.3143 98.4399C31.3192 98.7298 31.3693 99.0075 31.4648 99.2731L31.429 99.6831C31.3522 99.8492 31.258 99.9958 31.1465 100.123C31.0288 100.227 30.9112 100.331 30.7936 100.436C30.7604 100.493 30.7046 100.557 30.6262 100.626C30.5644 100.667 30.5138 100.705 30.4746 100.74L30.4728 101.14L30.0835 101.317C29.8466 101.429 29.6746 101.512 29.5675 101.565C29.483 101.612 29.3729 101.653 29.237 101.69L28.8883 101.747C28.5847 101.61 28.3498 101.503 28.1837 101.426C28.0114 101.327 27.8196 101.245 27.6082 101.18C27.3316 100.963 27.1638 100.79 27.1048 100.66C27.0458 100.53 26.9897 100.412 26.9368 100.304C26.8551 100.181 26.8021 100.074 26.7779 99.983C26.731 99.8986 26.6788 99.8397 26.6214 99.8066L26.0708 99.5174L26.3624 99.1117L26.2417 98.5253C26.3851 97.2494 26.5633 96.0127 26.7762 94.8152C27.0118 93.6116 27.2526 92.3824 27.4987 91.1275C27.5828 90.7168 27.6555 90.3091 27.7169 89.9044C27.801 89.4936 27.8851 89.0829 27.9691 88.6721C27.9283 88.6103 27.8957 88.5341 27.8715 88.4435C27.8472 88.353 27.8425 88.245 27.8575 88.1197C28.0034 87.6681 28.1161 87.2739 28.1958 86.9372C28.2693 86.5778 28.3429 86.2184 28.4164 85.8589C28.4944 85.4256 28.5754 85.0035 28.6595 84.5927C28.7662 84.1759 28.9151 83.7357 29.1063 83.2719L29.5859 82.8886C29.6478 82.8478 29.7209 82.8039 29.8054 82.757C29.8838 82.6875 29.9797 82.6375 30.0929 82.6072L30.6204 82.5386C31.1755 82.0745 31.6209 81.5184 31.9568 80.8703C32.2866 80.1996 32.6005 79.4239 32.8984 78.5434L33.1106 77.977L33.6248 78.1304C33.7562 78.168 33.9329 78.1934 34.1548 78.2067C34.3707 78.1974 34.6009 78.1964 34.8455 78.2036C35.2773 78.185 35.6895 78.1838 36.082 78.1999C36.4746 78.216 36.8144 78.307 37.1014 78.4727C37.3343 78.7985 37.4863 79.049 37.5575 79.224C37.6287 79.3991 37.7112 79.5711 37.805 79.74C37.976 80.1067 38.1357 80.4764 38.2841 80.8491C38.4552 81.2158 38.6157 81.6338 38.7657 82.1032C38.982 82.4577 39.1757 82.8183 39.3468 83.1849C39.5344 83.5229 39.7137 83.8752 39.8847 84.2419C40.1435 84.7549 40.3993 85.2566 40.652 85.7469C40.8986 86.2146 41.1732 86.6506 41.4756 87.0549C41.6567 87.0064 41.7729 86.9873 41.8243 86.9979C41.9253 86.9222 42.0294 86.858 42.1366 86.805C42.2663 86.7459 42.4074 86.6839 42.5598 86.6188L42.9243 86.4847L43.1511 86.7879C43.2041 86.895 43.3476 86.9779 43.5817 87.0365C43.882 86.9803 44.1153 86.9906 44.2815 87.0674C44.4416 87.1215 44.5934 87.19 44.7369 87.2729C44.8517 87.3392 44.9605 87.3829 45.0632 87.4039L45.6271 87.4711L45.492 88.0533C45.3748 88.5215 45.1526 89.0056 44.8256 89.5057C44.5152 89.9771 44.133 90.4071 43.679 90.7957C43.7381 90.9254 43.7858 91.0582 43.8222 91.1941C43.8751 91.3012 43.9425 91.4166 44.0241 91.5403C44.1952 91.907 44.3579 92.288 44.5124 92.6833C44.6669 93.0787 44.7791 93.4975 44.8491 93.9398L44.8175 94.0938ZM33.4294 90.8487C34.0965 90.6214 34.6956 90.4124 35.2268 90.2215C35.7746 90.0019 36.3698 89.7332 37.0126 89.4154C36.6721 88.7787 36.3143 88.1224 35.9391 87.4465C35.5578 86.7479 35.1682 86.0637 34.7704 85.3939L34.6576 85.7881C34.3322 86.3848 34.0333 87.0351 33.7609 87.739C33.5111 88.4368 33.3088 89.0855 33.154 89.685C33.0728 89.9252 32.9915 90.1653 32.9103 90.4054C32.8291 90.6456 32.7591 90.8827 32.7005 91.1168C32.8303 91.0577 32.9518 91.0131 33.065 90.9827C33.2008 90.9463 33.3223 90.9017 33.4294 90.8487ZM53.1285 88.3001C52.9369 88.3999 52.8231 88.5639 52.7872 88.7919C52.7451 88.9973 52.7061 89.214 52.6702 89.442C52.6569 89.6639 52.6292 89.8776 52.5872 90.083C52.5617 90.2596 52.4697 90.3692 52.3113 90.4117C52.3372 90.5988 52.3117 90.7755 52.2349 90.9417C52.1807 91.1018 52.1296 91.2732 52.0815 91.4559C52.0274 91.616 52.0019 91.7927 52.0052 91.9859C52.0024 92.1565 52.0766 92.3429 52.2278 92.545C52.0831 92.7294 52.0214 92.9522 52.0429 93.2133C52.0643 93.4745 52.0714 93.7273 52.0642 93.9719C52.0795 94.2105 52.0405 94.4271 51.9472 94.622C51.8538 94.8169 51.623 94.9515 51.2547 95.0259C51.211 95.1347 51.2149 95.1943 51.2662 95.2048C51.3176 95.2153 51.3728 95.2855 51.4318 95.4152C51.1706 95.4367 50.9812 95.4996 50.8636 95.6039C50.7747 95.7248 50.6427 95.8208 50.4676 95.892C50.0011 95.8714 49.5752 95.7307 49.1899 95.47C48.8272 95.2032 48.4781 94.8964 48.1425 94.5496C47.8235 94.174 47.5158 93.7955 47.2195 93.4138C46.9458 93.0262 46.6872 92.6951 46.4438 92.4206C46.445 92.1534 46.3926 91.9126 46.2867 91.6984C46.1747 91.4615 46.0408 91.279 45.8852 91.1508C46.3636 88.4991 46.9015 85.6617 47.4987 82.6385C48.096 79.6152 48.6344 76.6442 49.114 73.7253C49.6893 73.7895 50.2624 73.8907 50.8332 74.0289C51.4207 74.1385 51.9636 74.3084 52.4621 74.5388C52.9832 74.7631 53.4516 75.0622 53.8673 75.4362C54.2768 75.7874 54.5997 76.2226 54.8358 76.7417C54.8269 76.8897 54.7855 76.9614 54.7115 76.957C54.6541 76.9238 54.6119 76.9473 54.5848 77.0273C54.7057 77.1163 54.7722 77.1834 54.7843 77.2286C54.8191 77.2679 54.8312 77.3131 54.8207 77.3645C54.8328 77.4098 54.851 77.4777 54.8753 77.5682C54.8935 77.6361 54.9547 77.7289 55.0591 77.8466C54.9624 77.8482 54.8976 77.8777 54.8644 77.9351C54.8539 77.9865 54.786 78.0046 54.6607 77.9897C54.8179 78.2145 54.8952 78.4121 54.8924 78.5828C54.9122 78.7473 54.9063 78.9066 54.8748 79.0606C54.8372 79.192 54.817 79.343 54.8142 79.5136C54.8053 79.6616 54.8652 79.8396 54.9938 80.0478C54.9258 80.066 54.8753 80.1038 54.8422 80.1612C54.8256 80.19 54.812 80.23 54.8015 80.2813C54.785 80.31 54.7601 80.3531 54.727 80.4105C54.7104 80.4392 54.6651 80.4513 54.5911 80.4469C54.7925 80.9267 54.9486 81.4187 55.0594 81.9229C55.1702 82.427 55.2841 82.9424 55.401 83.4692C55.5344 83.9672 55.6883 84.4962 55.8626 85.0561C56.0308 85.5934 56.2617 86.1381 56.5552 86.6903C57.2428 85.9966 57.7243 85.2124 57.9995 84.3379C58.2974 83.4574 58.4691 82.5136 58.5147 81.5066C58.5829 80.4934 58.5537 79.4336 58.4271 78.3271C58.3005 77.2207 58.1791 76.0885 58.063 74.9307C58.2121 74.6723 58.3039 74.3808 58.3382 74.0562C58.3725 73.7316 58.3925 73.3986 58.3982 73.0574C58.3977 72.6936 58.4003 72.341 58.406 71.9998C58.4055 71.636 58.4368 71.3 58.4999 70.992C58.8516 70.9463 59.1649 70.9836 59.4398 71.1041C59.7313 71.1958 60.0062 71.3163 60.2646 71.4654C60.5168 71.5919 60.7804 71.7154 61.0554 71.8359C61.3242 71.9337 61.6345 71.9597 61.9862 71.914C62.361 72.2261 62.7101 72.5329 63.0336 72.8345C63.357 73.136 63.6073 73.4815 63.7844 73.8708C63.7197 74.0822 63.6838 74.3102 63.6765 74.5548C63.6919 74.7933 63.696 75.0349 63.6887 75.2795C63.6814 75.5241 63.6485 75.7634 63.5899 75.9975C63.5252 76.2089 63.4092 76.4099 63.2419 76.6003C63.3317 77.2071 63.3867 77.7747 63.407 78.3031C63.4438 78.8028 63.4693 79.3055 63.4835 79.8112C63.5203 80.3109 63.5746 80.8302 63.6462 81.3691C63.7117 81.8853 63.8377 82.446 64.0241 83.0512C63.9825 83.6205 63.9387 84.2267 63.8927 84.8699C63.8466 85.5131 63.8307 86.0876 63.8449 86.5933C63.5615 86.9847 63.3726 87.4114 63.278 87.8735C63.1835 88.3356 63.0776 88.8007 62.9604 89.2689C62.8941 89.3837 62.8436 89.4215 62.8088 89.3823C62.774 89.3431 62.6857 89.3303 62.5438 89.3441C62.5907 89.4286 62.6089 89.4965 62.5984 89.5479C62.5879 89.5992 62.566 89.6536 62.5329 89.711C62.5163 89.7397 62.5058 89.791 62.5014 89.865C62.5196 89.9329 62.5665 90.0174 62.6421 90.1185C62.3615 90.3392 62.1301 90.6075 61.9478 90.9233C61.7655 91.239 61.5545 91.5382 61.3148 91.8208C61.0977 92.0973 60.7945 92.3242 60.4052 92.5013C60.0386 92.6723 59.508 92.7296 58.8134 92.673C57.7032 92.2426 56.6676 91.6829 55.7066 90.9941C54.7682 90.2993 53.9089 89.4012 53.1285 88.3001ZM79.2834 77.6522C79.2818 77.5556 79.318 77.5095 79.3919 77.514C79.4825 77.4897 79.5587 77.4572 79.6206 77.4163C79.3909 77.2837 79.214 77.0764 79.0899 76.7942C78.9597 76.4894 78.7767 76.2594 78.541 76.1041C78.556 75.9788 78.5596 75.8565 78.5519 75.7373C78.5669 75.6119 78.6566 75.5393 78.8211 75.5195C78.6198 75.0397 78.5067 74.5725 78.482 74.1181C78.4573 73.6637 78.484 73.2198 78.562 72.7864C78.6626 72.347 78.7889 71.9128 78.9409 71.4838C79.1094 71.0262 79.2666 70.5716 79.4125 70.12C79.6042 70.0201 79.7347 70.0094 79.8043 70.0878C79.8678 70.1436 79.9409 70.0997 80.0238 69.9562C80.3193 69.6101 80.4955 69.2717 80.5525 68.941C80.6034 68.5877 80.5803 68.2299 80.4833 67.8677C80.5293 67.2245 80.601 66.5865 80.6984 65.9538C80.8123 65.2924 80.9724 64.6672 81.1785 64.0781C81.3846 63.4891 81.6316 62.9619 81.9194 62.4965C82.2011 62.0086 82.5411 61.602 82.9393 61.277C83.1834 60.9204 83.5129 60.5652 83.9276 60.2114C84.365 59.8516 84.8402 59.5423 85.3532 59.2835C85.8828 58.996 86.4419 58.7734 87.0305 58.6157C87.6131 58.4353 88.1716 58.3463 88.706 58.3487C88.8313 58.3637 88.8932 58.3228 88.8916 58.2262C88.8839 58.1069 88.9253 58.0352 89.0159 58.0109C90.1842 57.8434 91.2523 57.7999 92.2201 57.8803C93.2106 57.9546 94.0986 58.1898 94.8842 58.5859C95.4963 59.1498 96.1009 59.7764 96.6981 60.4656C97.2892 61.1322 97.8019 61.8684 98.2362 62.674C98.687 63.451 99.0224 64.2953 99.2424 65.2069C99.4624 66.1186 99.5126 67.0757 99.3931 68.0783C98.8676 69.2867 98.1208 70.3482 97.1526 71.2628C96.1784 72.1547 95.0894 72.9803 93.8855 73.7396C92.6982 74.4703 91.4361 75.1481 90.0992 75.7733C88.785 76.3923 87.5108 77.0249 86.2766 77.671C86.463 78.2762 86.6389 78.9328 86.8043 79.6406C86.9637 80.3259 87.0694 81.0376 87.1216 81.7758C87.1904 82.4853 87.1883 83.2017 87.1152 83.9249C87.0647 84.6421 86.9115 85.3383 86.6557 86.0134C86.1968 86.1121 85.7336 86.2848 85.2658 86.5314C84.8207 86.772 84.4209 87.0005 84.0664 87.2168C83.855 87.1521 83.6435 87.0874 83.4321 87.0228C83.2493 86.9747 83.0304 86.9727 82.7753 87.0168C82.7705 86.7269 82.6267 86.4621 82.3441 86.2224C82.0841 85.9766 81.8159 85.7452 81.5393 85.5281C81.2794 85.2824 81.079 85.0327 80.9383 84.7793C80.8142 84.4971 80.8803 84.2003 81.1365 83.889C80.913 83.7791 80.7557 83.5543 80.6647 83.2147C80.7795 83.281 80.9048 83.296 81.0407 83.2596C80.8862 82.8642 80.8011 82.3654 80.7852 81.763C80.7921 81.1545 80.768 80.5665 80.7129 79.9989C80.6745 79.4026 80.5606 78.8872 80.3714 78.4526C80.1761 77.9954 79.8134 77.7286 79.2834 77.6522ZM85.9834 67.3402C85.9596 67.6135 85.941 67.8611 85.9277 68.0831C85.9309 68.2763 85.9198 68.4613 85.8944 68.638C85.8689 68.8146 85.8321 68.9943 85.784 69.1771C85.7586 69.3537 85.7279 69.5561 85.6919 69.7841C85.7736 69.9078 85.8914 69.9854 86.0455 70.0169C86.1995 70.0484 86.3174 70.1261 86.399 70.2498C86.6735 70.0064 86.9601 69.8082 87.2589 69.6554C87.5515 69.4799 87.8503 69.3271 88.1551 69.1969C88.4599 69.0667 88.7617 68.9251 89.0604 68.7723C89.3592 68.6195 89.6571 68.4183 89.9542 68.1688C90.2514 67.9194 90.5689 67.7008 90.9069 67.5132C91.2614 67.2969 91.6046 67.0836 91.9365 66.8734C92.2684 66.6631 92.5859 66.4446 92.8891 66.2178C93.1862 65.9683 93.4259 65.6857 93.6082 65.3699C93.2124 65.1606 92.6673 65.0276 91.9727 64.9711C91.2782 64.9145 90.5513 64.9637 89.7921 65.1186C89.0494 65.2448 88.3258 65.4872 87.6212 65.8459C86.9392 66.1985 86.3933 66.6966 85.9834 67.3402ZM119.084 74.1941C119.052 74.6153 118.954 75.0661 118.792 75.5464C118.646 75.998 118.434 76.4308 118.157 76.8448C117.896 77.2301 117.578 77.5822 117.202 77.9013C116.827 78.2203 116.404 78.4548 115.935 78.6048C115.623 78.6157 115.398 78.5911 115.26 78.5309C115.151 78.4872 115.031 78.4466 114.9 78.409C114.82 78.3819 114.743 78.3662 114.669 78.3617C114.611 78.3286 114.557 78.3068 114.506 78.2963L114.053 78.2357L114.07 77.7578C114.067 77.5646 114.019 77.4318 113.927 77.3594C113.829 77.2644 113.654 77.1536 113.401 77.0271C113.315 76.9774 113.229 76.9277 113.143 76.878C113.057 76.8283 112.982 76.7755 112.919 76.7197L112.168 76.2292L113.022 75.7458C113.545 75.4357 113.864 75.1318 113.978 74.8343C114.115 74.5307 114.083 74.0906 113.88 73.5141C113.402 73.5449 113.015 73.6367 112.716 73.7896C112.44 73.9363 112.155 74.0975 111.863 74.2729C111.485 74.4953 111.094 74.7094 110.688 74.9152C110.299 75.0923 109.855 75.2476 109.357 75.3811C109.176 75.4296 109.006 75.4751 108.848 75.5176C108.683 75.5374 108.507 75.5602 108.32 75.5861L107.962 75.6092C107.85 75.3723 107.769 75.2486 107.717 75.2381C107.66 75.2049 107.602 75.1718 107.545 75.1387C107.402 75.0558 107.238 74.942 107.053 74.7973C106.885 74.6239 106.796 74.3809 106.785 74.0684C106.617 73.895 106.495 73.7094 106.418 73.5117C106.355 73.8198 106.329 74.1301 106.339 74.4426L106.295 74.8186L105.973 74.9775C105.934 75.0123 105.915 75.078 105.917 75.1746C105.912 75.2486 105.916 75.3082 105.928 75.3535L105.913 75.9763C105.88 76.0337 105.847 76.0911 105.814 76.1485C105.775 76.1833 105.738 76.2293 105.705 76.2868C105.715 76.5026 105.713 76.7216 105.699 76.9435C105.686 77.1654 105.67 77.3761 105.65 77.5754C105.616 77.9 105.593 78.2216 105.581 78.5402C105.586 78.8301 105.636 79.1078 105.732 79.3734L105.696 79.7833C105.619 79.9495 105.525 80.0961 105.413 80.223C105.296 80.3273 105.178 80.4316 105.06 80.5359C105.027 80.5934 104.972 80.6568 104.893 80.7264C104.831 80.7672 104.781 80.805 104.741 80.8398L104.74 81.2406L104.35 81.4177C104.114 81.5297 103.942 81.6122 103.834 81.6652C103.75 81.7121 103.64 81.7537 103.504 81.7901L103.155 81.8472C102.852 81.7101 102.617 81.6032 102.451 81.5264C102.278 81.427 102.086 81.345 101.875 81.2803C101.598 81.0632 101.431 80.8898 101.372 80.76C101.313 80.6303 101.257 80.5118 101.204 80.4047C101.122 80.281 101.069 80.1739 101.045 80.0833C100.998 79.9988 100.946 79.94 100.888 79.9068L100.338 79.6176L100.629 79.2119L100.509 78.6255C100.652 77.3496 100.83 76.1129 101.043 74.9154C101.279 73.7119 101.52 72.4827 101.766 71.2278C101.85 70.817 101.922 70.4093 101.984 70.0046C102.068 69.5939 102.152 69.1831 102.236 68.7724C102.195 68.7105 102.163 68.6343 102.138 68.5438C102.114 68.4532 102.109 68.3453 102.124 68.22C102.27 67.7684 102.383 67.3742 102.463 67.0374C102.536 66.678 102.61 66.3186 102.683 65.9592C102.761 65.5258 102.842 65.1037 102.926 64.693C103.033 64.2762 103.182 63.8359 103.373 63.3722L103.853 62.9889C103.915 62.9481 103.988 62.9042 104.072 62.8573C104.151 62.7877 104.247 62.7378 104.36 62.7075L104.887 62.6389C105.442 62.1747 105.888 61.6186 106.224 60.9705C106.554 60.2998 106.867 59.5242 107.165 58.6437L107.377 58.0773L107.892 58.2306C108.023 58.2682 108.2 58.2937 108.422 58.307C108.638 58.2977 108.868 58.2966 109.112 58.3039C109.544 58.2853 109.956 58.284 110.349 58.3002C110.741 58.3163 111.081 58.4072 111.368 58.573C111.601 58.8988 111.753 59.1492 111.824 59.3243C111.896 59.4993 111.978 59.6713 112.072 59.8403C112.243 60.207 112.403 60.5767 112.551 60.9494C112.722 61.316 112.883 61.7341 113.033 62.2034C113.249 62.5579 113.443 62.9185 113.614 63.2852C113.801 63.6232 113.981 63.9755 114.152 64.3421C114.41 64.8551 114.666 65.3568 114.919 65.8472C115.165 66.3149 115.44 66.7509 115.742 67.1551C115.924 67.1066 116.04 67.0876 116.091 67.0981C116.192 67.0225 116.296 66.9582 116.403 66.9052C116.533 66.8462 116.674 66.7841 116.827 66.719L117.191 66.585L117.418 66.8882C117.471 66.9953 117.614 67.0782 117.849 67.1368C118.149 67.0805 118.382 67.0908 118.548 67.1676C118.708 67.2218 118.86 67.2903 119.004 67.3732C119.119 67.4395 119.227 67.4831 119.33 67.5041L119.894 67.5714L119.759 68.1536C119.642 68.6217 119.42 69.1059 119.092 69.606C118.782 70.0774 118.4 70.5074 117.946 70.8959C118.005 71.0257 118.053 71.1585 118.089 71.2943C118.142 71.4014 118.209 71.5169 118.291 71.6406C118.462 72.0072 118.625 72.3882 118.779 72.7836C118.934 73.179 119.046 73.5978 119.116 74.0401L119.084 74.1941ZM107.696 70.9489C108.363 70.7217 108.962 70.5126 109.494 70.3218C110.041 70.1022 110.637 69.8335 111.279 69.5157C110.939 68.879 110.581 68.2227 110.206 67.5467C109.825 66.8482 109.435 66.164 109.037 65.4941L108.924 65.8883C108.599 66.4851 108.3 67.1354 108.028 67.8392C107.778 68.537 107.576 69.1857 107.421 69.7853C107.34 70.0254 107.258 70.2655 107.177 70.5057C107.096 70.7458 107.026 70.983 106.967 71.217C107.097 71.158 107.219 71.1133 107.332 71.083C107.468 71.0466 107.589 71.0019 107.696 70.9489ZM144.529 63.8823C144.246 65.0013 143.736 65.9508 142.999 66.7307C142.255 67.488 141.4 68.1903 140.433 68.8376C139.46 69.4623 138.422 70.0682 137.317 70.6553C136.235 71.2364 135.209 71.8875 134.237 72.6088C133.92 72.6938 133.64 72.7809 133.397 72.8703C133.177 72.9536 132.96 73.0482 132.746 73.1541C132.548 73.2314 132.353 73.3199 132.162 73.4198C131.964 73.497 131.744 73.5803 131.501 73.6697C131.404 73.6713 131.354 73.7091 131.349 73.7831C131.339 73.8344 131.317 73.8888 131.284 73.9462C130.917 74.1173 130.575 74.2453 130.258 74.3302C129.964 74.409 129.715 74.4758 129.511 74.5304C129.239 74.6032 128.966 74.7129 128.689 74.8597C128.442 75.0231 128.202 75.1237 127.97 75.1618C126.247 75.5262 124.751 75.2841 123.48 74.4357C122.226 73.5585 121.276 72.139 120.629 70.1771C120.621 70.0578 120.58 69.996 120.506 69.9915C120.455 69.981 120.4 69.9592 120.343 69.926C120.282 69.6997 120.253 69.5012 120.256 69.3306C120.282 69.1539 120.238 68.9471 120.126 68.7102C120.381 67.3074 120.74 65.9738 121.202 64.7096C121.658 63.4228 122.297 62.2323 123.12 61.1383C123.242 60.96 123.342 60.7878 123.418 60.6216C123.495 60.4554 123.561 60.2923 123.615 60.1322C123.692 59.966 123.786 59.8195 123.897 59.6925C124.003 59.5429 124.152 59.4182 124.343 59.3183C124.673 58.6476 125.105 57.9979 125.641 57.3692C126.176 56.7405 126.751 56.1254 127.366 55.5237C127.976 54.8995 128.576 54.2896 129.169 53.694C129.778 53.0698 130.307 52.4185 130.757 51.74C131.036 51.7865 131.226 51.7719 131.327 51.6963C131.428 51.6207 131.553 51.5874 131.701 51.5962C131.95 51.8934 132.229 52.0735 132.537 52.1365C132.868 52.1935 133.19 52.2648 133.504 52.3505C133.835 52.4074 134.152 52.5044 134.456 52.6415C134.759 52.7785 135.025 52.9986 135.251 53.3018C135.116 53.3382 135.063 53.413 135.093 53.5262C135.14 53.6107 135.201 53.7034 135.277 53.8045C135.346 53.8829 135.385 53.9818 135.393 54.101C135.417 54.1916 135.35 54.2581 135.191 54.3005C135.244 54.4077 135.331 54.4574 135.45 54.4497C135.586 54.4133 135.669 54.4517 135.699 54.5649C135.729 54.6781 135.72 54.7778 135.67 54.8639C135.643 54.9439 135.673 55.0571 135.761 55.2034C135.387 55.6191 134.953 56.0385 134.46 56.4619C133.99 56.8791 133.491 57.3281 132.965 57.8088C132.455 58.2609 131.921 58.7559 131.361 59.2941C130.818 59.8035 130.302 60.3665 129.812 60.9831C129.322 61.5996 128.836 62.2758 128.354 63.0116C127.865 63.7248 127.409 64.4659 126.984 65.2349C126.559 66.0038 126.174 66.7864 125.83 67.5824C125.479 68.3558 125.207 69.108 125.015 69.8389C125.09 69.94 125.16 70.0184 125.223 70.0742C125.303 70.1013 125.381 70.1654 125.457 70.2664C126.193 70.1176 126.861 69.9386 127.46 69.7296C128.076 69.4918 128.719 69.3559 129.389 69.3219C129.445 69.2584 129.472 69.1784 129.471 69.0817C129.469 68.9851 129.507 68.902 129.586 68.8325C130.84 68.3509 131.985 67.8256 133.022 67.2567C134.052 66.6652 135.102 66.0563 136.172 65.43C135.972 65.4106 135.787 65.3995 135.617 65.3967C135.463 65.3651 135.312 65.3449 135.164 65.3361C135.02 65.2532 134.996 65.1626 135.091 65.0644C135.203 64.9374 135.292 64.8165 135.358 64.7017C134.992 64.6055 134.671 64.4489 134.395 64.2318C134.141 64.0087 133.931 63.6768 133.764 63.2362C133.87 63.0866 133.901 62.9325 133.859 62.7741C133.816 62.6156 133.715 62.5093 133.555 62.4551C133.458 62.4567 133.402 62.4719 133.385 62.5006C133.368 62.5293 133.355 62.5693 133.344 62.6207C133.357 62.666 133.357 62.7143 133.347 62.7656C133.33 62.7943 133.271 62.7982 133.168 62.7772C133.136 62.5673 133.136 62.3854 133.167 62.2314C133.221 62.0713 133.247 61.8946 133.244 61.7014L135.168 59.5115C135.466 59.6258 135.826 59.7477 136.249 59.877C136.666 59.9837 137.097 60.0987 137.542 60.222C138.005 60.3165 138.47 60.4224 138.938 60.5396C139.423 60.6281 139.873 60.7257 140.29 60.8324C140.643 60.8833 140.975 60.9886 141.285 61.1482C141.594 61.3079 141.896 61.4819 142.189 61.6703C142.476 61.836 142.763 62.0017 143.05 62.1675C143.36 62.3271 143.694 62.4437 144.054 62.5173C144.087 62.8237 144.162 63.0584 144.279 63.2213C144.395 63.3842 144.478 63.6045 144.529 63.8823ZM158.6 46.172C158.665 46.3244 158.699 46.4489 158.7 46.5455C158.718 46.6135 158.725 46.6844 158.721 46.7584C158.739 46.8263 158.76 46.9055 158.785 46.9961C158.803 47.064 158.856 47.1711 158.943 47.3175C158.674 48.2146 158.262 48.8952 157.707 49.3594C157.169 49.7948 156.555 50.1775 155.867 50.5075C155.173 50.8148 154.46 51.1395 153.726 51.4816C153.016 51.8176 152.347 52.3121 151.722 52.965C151.397 52.9307 151.125 53.0035 150.907 53.1834C150.71 53.3573 150.38 53.4822 149.915 53.5582C149.816 53.7305 149.673 53.8778 149.488 54.0004C149.296 54.1002 149.107 54.2114 148.922 54.3339C149.067 54.5134 149.159 54.7194 149.197 54.9518C149.251 55.1556 149.331 55.3163 149.435 55.4339C150.246 55.2895 151.114 55.0447 152.041 54.6993C152.99 54.3479 153.926 54.0366 154.848 53.7652C154.901 53.8723 154.911 53.9546 154.877 54.012C154.838 54.0468 154.842 54.1064 154.889 54.1909C155.078 54.2616 155.276 54.3663 155.483 54.505C155.684 54.621 155.885 54.737 156.085 54.853C156.286 54.969 156.481 55.0624 156.67 55.1331C156.875 55.1752 157.088 55.1545 157.309 55.0712C157.448 55.2281 157.559 55.4167 157.642 55.637C157.742 55.8286 157.777 56.0497 157.747 56.3004C157.452 56.6465 157.159 57.0039 156.87 57.3726C156.574 57.7187 156.25 58.0482 155.897 58.3611C155.567 58.668 155.194 58.95 154.777 59.2072C154.377 59.4356 153.903 59.6113 153.353 59.7343C153.24 59.7646 153.15 59.7889 153.082 59.8071C153.036 59.8192 152.959 59.8034 152.851 59.7598C152.7 59.9215 152.449 60.0252 152.097 60.0709C151.768 60.1106 151.528 60.2113 151.377 60.373C151.098 60.3265 150.78 60.3631 150.424 60.4828C150.084 60.5738 149.767 60.6104 149.471 60.5927C149.236 61.1651 149.044 61.7625 148.895 62.3847C148.747 63.0069 148.641 63.6539 148.578 64.3258C149.378 64.2328 150.024 64.1082 150.516 63.9521C151.031 63.79 151.509 63.6256 151.949 63.459C152.384 63.2697 152.833 63.0888 153.296 62.9161C153.753 62.7208 154.347 62.5374 155.078 62.3659C155.464 61.9956 155.953 61.6946 156.546 61.4629C157.156 61.2025 157.697 60.912 158.169 60.5913C158.368 60.6107 158.56 60.6928 158.744 60.8375C158.923 60.9596 159.09 61.0847 159.245 61.2128C159.418 61.3122 159.587 61.4004 159.753 61.4772C159.919 61.554 160.101 61.5537 160.299 61.4765C160.414 61.5428 160.501 61.6408 160.56 61.7706C160.635 61.8717 160.699 61.9757 160.752 62.0829C160.805 62.19 160.867 62.2828 160.936 62.3612C161.022 62.4109 161.13 62.4063 161.26 62.3472C161.121 63.1853 160.879 63.8687 160.536 64.3976C160.208 64.8977 159.789 65.3254 159.278 65.6808C158.767 66.0362 158.175 66.3646 157.504 66.6658C156.855 66.961 156.133 67.3 155.338 67.683C155.146 67.7828 154.973 67.817 154.819 67.7855C154.671 67.7766 154.507 67.7964 154.326 67.845C153.835 68.0977 153.24 68.3664 152.54 68.651C151.84 68.9357 151.113 69.1668 150.36 69.3443C149.607 69.5219 148.866 69.6111 148.138 69.612C147.417 69.6355 146.783 69.4898 146.238 69.1749C146.014 69.065 145.841 68.9172 145.719 68.7317C145.613 68.5174 145.42 68.387 145.141 68.3406C145.039 68.0523 144.906 67.7362 144.741 67.3922C144.576 67.0482 144.408 66.6928 144.237 66.3261C144.06 65.9368 143.897 65.5558 143.749 65.1831C143.623 64.8043 143.552 64.4473 143.535 64.1122C143.512 63.7544 143.566 63.4124 143.697 63.0861C143.85 62.7538 143.851 62.4383 143.698 62.1395C143.805 62.0866 143.858 62.0118 143.856 61.9151C143.848 61.7959 143.927 61.7263 144.091 61.7065C144.118 61.2626 144.162 60.8383 144.223 60.4336C144.285 60.029 144.349 59.6356 144.417 59.2535C144.507 58.8654 144.586 58.4804 144.653 58.0983C144.737 57.6876 144.801 57.2459 144.844 56.7733C144.448 56.5639 144.125 56.3106 143.876 56.0135C143.643 55.6877 143.447 55.3641 143.288 55.0427C143.123 54.6987 142.97 54.3516 142.827 54.0015C142.679 53.6288 142.497 53.2652 142.28 52.9106C142.416 52.5104 142.615 52.1659 142.877 51.8773C143.156 51.5599 143.47 51.2817 143.818 51.0428C144.166 50.8038 144.555 50.5784 144.983 50.3665C145.412 50.1546 145.86 49.9254 146.328 49.6787C147.155 49.1418 147.898 48.7 148.557 48.3535C149.239 48.0009 149.907 47.6884 150.562 47.4158C151.234 47.1146 151.931 46.8186 152.654 46.5279C153.376 46.2371 154.189 45.8738 155.091 45.4379C155.35 45.5871 155.569 45.6374 155.751 45.5889C155.786 45.3609 155.873 45.277 156.011 45.3372C156.165 45.3687 156.203 45.2856 156.126 45.0879C156.455 45.4121 156.826 45.6646 157.239 45.8453C157.668 45.9972 158.121 46.1061 158.6 46.172ZM177.781 58.9396C177.601 58.7209 177.424 58.5135 177.25 58.3175C177.076 58.1214 176.909 57.948 176.747 57.7972C176.33 57.3267 175.961 56.9036 175.642 56.5281C175.323 56.1525 174.998 55.706 174.665 55.1886C174.63 54.7855 174.57 54.11 174.486 53.162C174.424 52.2079 174.364 51.1685 174.305 50.0438C174.241 48.8965 174.184 47.7348 174.136 46.5588C174.11 45.3767 174.127 44.353 174.186 43.4879C174.247 42.7194 174.319 41.8995 174.401 41.0283C174.506 40.151 174.651 39.3355 174.837 38.582C175.04 37.7997 175.293 37.1132 175.596 36.5225C175.899 35.9318 176.287 35.5245 176.761 35.3005C176.945 35.4452 177.132 35.5529 177.32 35.6237C177.503 35.6718 177.668 35.7002 177.816 35.7091C178.347 36.1493 178.845 36.5133 179.31 36.8011C179.769 37.0663 180.297 37.3133 180.892 37.542C180.938 38.2576 180.937 39.0706 180.89 39.981C180.859 40.8628 180.809 41.7619 180.739 42.6784C180.692 43.5888 180.639 44.4766 180.579 45.3418C180.514 46.1843 180.478 46.9097 180.471 47.5182C180.457 48.0074 180.46 48.5644 180.482 49.1895C180.502 49.7178 180.539 50.3511 180.591 51.0893C180.666 51.8215 180.759 52.6215 180.87 53.4895C181.163 53.314 181.465 53.0389 181.777 52.6641C182.112 52.2832 182.41 51.9002 182.67 51.5149C182.987 51.0661 183.286 50.5977 183.568 50.1097C183.949 49.4495 184.263 48.8558 184.51 48.3286C184.757 47.8014 184.967 47.272 185.14 46.7404C185.329 46.18 185.51 45.5857 185.681 44.9575C185.869 44.3005 186.086 43.5265 186.333 42.6354C186.564 41.8697 186.795 41.0557 187.025 40.1934C187.278 39.325 187.539 38.4905 187.81 37.69C188.081 36.8895 188.356 36.1487 188.634 35.4675C188.907 34.7636 189.181 34.2047 189.459 33.7906C189.775 33.973 190.127 34.1575 190.517 34.3442C190.929 34.5249 191.343 34.6203 191.758 34.6303C191.984 34.8369 192.191 35.0239 192.382 35.1912C192.589 35.3299 192.784 35.4715 192.969 35.6163C193.217 35.8168 193.436 36.0007 193.626 36.168C193.839 36.3293 194.036 36.5193 194.216 36.738C194.242 36.9252 194.26 37.175 194.271 37.4875C194.305 37.794 194.336 38.1374 194.365 38.5178C194.388 38.8756 194.403 39.2477 194.409 39.6342C194.439 40.0146 194.465 40.3837 194.488 40.7415C194.534 41.8209 194.571 42.6362 194.597 43.1872C194.623 43.7382 194.653 44.1669 194.687 44.4734C194.721 44.7798 194.753 45.0379 194.785 45.2478C194.84 45.4515 194.916 45.7345 195.013 46.0967C195.086 46.3684 195.181 46.634 195.299 46.8935C195.411 47.1304 195.526 47.3786 195.644 47.6382C195.779 47.869 195.956 48.0764 196.175 48.2603L197.468 46.5671C197.83 46.1062 198.133 45.5155 198.376 44.7951C198.637 44.0459 198.853 43.2236 199.026 42.3281C199.215 41.4039 199.377 40.4262 199.514 39.3949C199.644 38.3409 199.768 37.2643 199.886 36.1651C199.963 35.3678 200.044 34.5819 200.127 33.8073C200.228 33.004 200.34 32.246 200.464 31.5332C200.583 30.7979 200.708 30.1334 200.84 29.5399C200.989 28.9177 201.151 28.3891 201.325 27.9541C202.04 28.1752 202.663 28.4205 203.197 28.6901C203.753 28.9537 204.253 29.2807 204.697 29.6712C205.158 30.033 205.561 30.4952 205.906 31.058C206.267 31.592 206.602 32.2543 206.911 33.0451C206.668 34.1294 206.465 35.2272 206.301 36.3386C206.138 37.4499 205.978 38.5726 205.821 39.7066C205.629 41.1653 205.415 42.63 205.178 44.1007C204.958 45.5428 204.655 46.9465 204.269 48.3117C203.882 49.677 203.381 50.976 202.765 52.2087C202.166 53.4127 201.391 54.5059 200.441 55.4884C200.106 55.5054 199.825 55.5442 199.599 55.6049C199.35 55.6716 199.144 55.7632 198.981 55.8796C198.84 55.99 198.718 56.12 198.612 56.2696C197.569 56.0882 196.652 55.6544 195.861 54.9685C195.065 54.2598 194.255 53.4576 193.433 52.5618C193.323 52.4215 193.204 52.2956 193.077 52.184C192.967 52.0438 192.845 51.9065 192.712 51.7723L191.853 50.8743L191.34 50.3201L190.983 50.8889L190.443 51.7252L190.144 52.2419C189.618 53.0865 189.078 53.9228 188.524 54.7508C187.963 55.5561 187.356 56.3253 186.703 57.0583C186.044 57.7687 185.305 58.4037 184.484 58.9633C183.686 59.5168 182.781 59.9414 181.768 60.237C181.563 60.1949 181.372 60.1612 181.195 60.1357C181.041 60.1042 180.887 60.0727 180.733 60.0412C180.146 59.9317 179.652 59.8092 179.251 59.6738C178.851 59.5384 178.361 59.2937 177.781 58.9396ZM224.174 28.6016C224.239 28.754 224.272 28.8785 224.274 28.9752C224.292 29.0431 224.299 29.114 224.294 29.188C224.313 29.2559 224.334 29.3352 224.358 29.4257C224.376 29.4936 224.429 29.6008 224.517 29.7471C224.248 30.6442 223.836 31.3249 223.281 31.789C222.742 32.2245 222.129 32.6072 221.441 32.9371C220.747 33.2444 220.033 33.5691 219.3 33.9112C218.589 34.2472 217.921 34.7417 217.295 35.3946C216.97 35.3603 216.699 35.4331 216.48 35.613C216.284 35.7869 215.954 35.9118 215.489 35.9879C215.389 36.1601 215.247 36.3075 215.061 36.43C214.87 36.5299 214.681 36.641 214.495 36.7636C214.641 36.943 214.732 37.149 214.77 37.3815C214.825 37.5852 214.904 37.7459 215.008 37.8635C215.819 37.7192 216.688 37.4743 217.614 37.129C218.563 36.7776 219.499 36.4662 220.421 36.1948C220.474 36.302 220.484 36.3842 220.451 36.4416C220.412 36.4764 220.416 36.5361 220.462 36.6205C220.651 36.6913 220.849 36.796 221.056 36.9346C221.257 37.0506 221.458 37.1666 221.659 37.2826C221.86 37.3987 222.055 37.492 222.244 37.5628C222.449 37.6048 222.662 37.5841 222.882 37.5008C223.021 37.6577 223.132 37.8463 223.216 38.0666C223.316 38.2582 223.351 38.4794 223.321 38.73C223.025 39.0761 222.733 39.4335 222.443 39.8022C222.148 40.1483 221.824 40.4778 221.471 40.7908C221.14 41.0976 220.767 41.3796 220.351 41.6368C219.951 41.8652 219.476 42.0409 218.927 42.1639C218.814 42.1942 218.723 42.2185 218.655 42.2367C218.61 42.2488 218.533 42.2331 218.424 42.1894C218.273 42.3511 218.022 42.4548 217.67 42.5006C217.341 42.5402 217.101 42.6409 216.951 42.8026C216.671 42.7561 216.354 42.7928 215.997 42.9125C215.658 43.0034 215.34 43.0401 215.044 43.0223C214.809 43.5948 214.617 44.1921 214.469 44.8143C214.32 45.4365 214.214 46.0835 214.152 46.7555C214.952 46.6624 215.598 46.5378 216.09 46.3817C216.604 46.2196 217.082 46.0552 217.523 45.8886C217.957 45.6994 218.406 45.5184 218.87 45.3457C219.327 45.1504 219.921 44.967 220.651 44.7956C221.037 44.4252 221.527 44.1242 222.12 43.8925C222.729 43.6321 223.27 43.3416 223.742 43.0209C223.942 43.0403 224.134 43.1224 224.318 43.2671C224.496 43.3892 224.663 43.5143 224.819 43.6424C224.991 43.7419 225.16 43.83 225.327 43.9068C225.493 43.9836 225.675 43.9834 225.872 43.9061C225.987 43.9724 226.074 44.0704 226.133 44.2002C226.209 44.3013 226.273 44.4054 226.326 44.5125C226.379 44.6196 226.44 44.7124 226.51 44.7908C226.596 44.8405 226.704 44.8359 226.834 44.7769C226.694 45.6149 226.453 46.2984 226.109 46.8272C225.782 47.3273 225.363 47.7551 224.851 48.1105C224.34 48.4659 223.749 48.7942 223.077 49.0954C222.428 49.3906 221.706 49.7297 220.911 50.1126C220.72 50.2125 220.547 50.2466 220.393 50.2151C220.245 50.2062 220.08 50.226 219.899 50.2746C219.409 50.5273 218.813 50.796 218.113 51.0807C217.413 51.3653 216.686 51.5964 215.933 51.774C215.18 51.9515 214.44 52.0407 213.712 52.0416C212.99 52.0651 212.357 51.9194 211.811 51.6045C211.588 51.4946 211.415 51.3468 211.292 51.1613C211.186 50.947 210.994 50.8167 210.714 50.7702C210.613 50.482 210.48 50.1658 210.315 49.8218C210.15 49.4778 209.982 49.1224 209.811 48.7558C209.634 48.3665 209.471 47.9855 209.322 47.6127C209.197 47.2339 209.125 46.877 209.108 46.5418C209.085 46.184 209.139 45.842 209.27 45.5158C209.424 45.1834 209.424 44.8679 209.271 44.5691C209.378 44.5162 209.431 44.4414 209.429 44.3448C209.422 44.2255 209.5 44.156 209.665 44.1361C209.691 43.6922 209.735 43.2679 209.797 42.8633C209.858 42.4586 209.923 42.0652 209.99 41.6832C210.08 41.2951 210.159 40.91 210.227 40.5279C210.311 40.1172 210.374 39.6755 210.417 39.2029C210.022 38.9935 209.699 38.7403 209.45 38.4432C209.217 38.1173 209.021 37.7937 208.862 37.4723C208.697 37.1283 208.543 36.7813 208.401 36.4312C208.252 36.0584 208.07 35.6948 207.854 35.3403C207.989 34.94 208.188 34.5956 208.45 34.3069C208.729 33.9895 209.043 33.7113 209.392 33.4724C209.74 33.2334 210.128 33.008 210.557 32.7961C210.986 32.5843 211.434 32.355 211.901 32.1084C212.728 31.5714 213.471 31.1297 214.13 30.7831C214.812 30.4306 215.481 30.118 216.136 29.8455C216.807 29.5442 217.504 29.2482 218.227 28.9575C218.95 28.6668 219.763 28.3034 220.665 27.8676C220.923 28.0167 221.143 28.067 221.324 28.0185C221.36 27.7905 221.447 27.7066 221.584 27.7668C221.738 27.7983 221.777 27.7153 221.699 27.5176C222.029 27.8418 222.4 28.0942 222.812 28.2749C223.241 28.4269 223.695 28.5358 224.174 28.6016ZM245.641 37.4079C245.795 37.4394 245.905 37.5314 245.97 37.6838C246.035 37.8362 246.069 37.9607 246.07 38.0574C245.802 38.6872 245.616 39.1253 245.512 39.3715C245.409 39.6177 245.338 39.8065 245.3 39.9379C245.257 40.0467 245.199 40.1471 245.126 40.2393C245.076 40.3254 244.946 40.5181 244.735 40.8173C243.88 41.7015 242.973 42.5269 242.014 43.2935C241.077 44.054 240.044 44.6825 238.916 45.1791C238.801 45.4766 238.496 45.7404 238 45.9705C237.532 46.2172 237.095 46.4434 236.689 46.6492C236.586 46.6282 236.512 46.5754 236.465 46.491C236.447 46.423 236.386 46.3786 236.283 46.3576C236.321 46.59 236.25 46.7305 236.069 46.779C235.894 46.8502 235.655 46.8656 235.353 46.8252C235.08 46.8014 234.772 46.7383 234.429 46.6361C234.115 46.5504 233.838 46.4669 233.598 46.3857C233.533 46.5971 233.457 46.8116 233.37 47.0291C233.305 47.2406 233.191 47.4045 233.028 47.5209C232.767 47.5424 232.566 47.56 232.424 47.5738C232.304 47.5814 232.203 47.6571 232.12 47.8006C231.966 47.7691 231.832 47.7202 231.717 47.6539C231.625 47.5815 231.522 47.5122 231.407 47.4459C231.321 47.3962 231.212 47.3525 231.08 47.3149C230.972 47.2713 230.821 47.2511 230.627 47.2543C230.648 47.1516 230.589 47.0219 230.45 46.865C230.305 46.6855 230.136 46.5974 229.943 46.6007C229.991 46.4179 229.894 46.2376 229.652 46.0598C229.427 45.8532 229.23 45.6149 229.06 45.3449C229.039 45.0837 229 44.8029 228.944 44.5026C228.888 44.2022 228.978 43.996 229.215 43.884C229.15 43.7316 229.079 43.6049 229.004 43.5038C228.928 43.4027 228.853 43.3017 228.777 43.2006C228.899 43.0223 228.97 42.8335 228.989 42.6342C229.002 42.4123 229.004 42.1933 228.995 41.9775C228.986 41.7616 228.988 41.5427 229.001 41.3207C229.014 41.0988 229.093 40.8956 229.238 40.7113C229.26 39.9775 229.285 39.437 229.313 39.0897C229.335 38.7198 229.327 38.3703 229.287 38.0412C229.27 37.7061 229.247 37.3483 229.218 36.9679C229.211 36.5814 229.237 36.0892 229.295 35.4912C229.182 35.1577 229.137 34.8543 229.161 34.581C229.178 34.2851 229.199 34.0005 229.223 33.7272C229.263 33.4252 229.281 33.1293 229.276 32.8394C229.265 32.5269 229.163 32.1904 228.969 31.8298C228.659 31.9373 228.462 32.1112 228.381 32.3513C228.294 32.5688 228.27 32.8421 228.31 33.1712C228.177 33.4008 227.975 33.5521 227.703 33.6248C227.448 33.6689 227.228 33.7522 227.042 33.8747C226.165 33.7701 225.387 33.4933 224.709 33.0442C224.03 32.5951 223.427 32.0168 222.897 31.3094C222.962 30.7341 223.152 30.222 223.468 29.7733C223.779 29.3019 224.164 28.8832 224.624 28.5173C225.078 28.1287 225.581 27.7877 226.133 27.4941C226.68 27.178 227.206 26.8792 227.713 26.5977C228.554 26.2027 229.388 25.785 230.216 25.3447C231.045 24.9043 231.977 24.5817 233.014 24.3766C233.132 24.2723 233.281 24.1959 233.462 24.1473C233.66 24.0701 233.861 24.0042 234.064 23.9496C234.268 23.895 234.461 23.8434 234.642 23.7949C234.839 23.7177 234.997 23.6269 235.115 23.5226C235.264 23.6281 235.447 23.6762 235.663 23.6669C235.895 23.6288 236.16 23.667 236.458 23.7814C236.675 23.5049 236.889 23.3989 237.101 23.4636C237.335 23.5222 237.549 23.5982 237.744 23.6916C237.939 23.7849 238.119 23.87 238.286 23.9468C238.474 24.0175 238.648 24.0317 238.807 23.9892C239.02 24.1505 239.264 24.2914 239.539 24.4118C239.836 24.5262 240.114 24.658 240.372 24.8071C240.647 24.9276 240.883 25.0828 241.08 25.2728C241.299 25.4567 241.448 25.6958 241.527 25.9901C241.534 26.1094 241.586 26.1682 241.683 26.1666C241.78 26.165 241.86 26.192 241.923 26.2478C242.134 26.9436 242.184 27.5851 242.075 28.1726C241.982 28.7313 241.812 29.2742 241.565 29.8014C241.341 30.3226 241.065 30.8332 240.738 31.3333C240.434 31.8274 240.169 32.3349 239.945 32.8561C240.25 33.0897 240.58 33.2803 240.935 33.4278C241.29 33.5754 241.645 33.7229 242 33.8704C242.378 34.0119 242.736 34.1707 243.074 34.347C243.413 34.5232 243.718 34.7569 243.99 35.0479C244.047 35.0811 244.116 35.1112 244.196 35.1382C244.27 35.1427 244.347 35.1584 244.427 35.1855C244.556 35.3937 244.71 35.6072 244.89 35.8259C245.064 36.0219 245.215 36.224 245.344 36.4322C245.489 36.6117 245.597 36.789 245.668 36.964C245.733 37.1164 245.724 37.2644 245.641 37.4079ZM236.626 27.6673C235.459 27.9314 234.332 28.3426 233.244 28.901C232.179 29.4534 231.322 30.059 230.673 30.7181C231.143 30.9319 231.604 31.1117 232.055 31.2576C232.53 31.3975 232.938 31.6521 233.279 32.0216C234.065 31.4228 234.725 30.7608 235.258 30.0354C235.786 29.2875 236.242 28.4981 236.626 27.6673ZM239.97 38.3817C239.977 38.1371 240.053 37.9226 240.198 37.7383C240.342 37.5539 240.49 37.3809 240.641 37.2192C240.786 37.0348 240.908 36.8565 241.007 36.6843C241.1 36.4894 241.099 36.2592 241.004 35.9936C240.176 35.8028 239.448 35.7554 238.819 35.8512C238.206 35.9184 237.64 36.0701 237.121 36.3062C236.618 36.5136 236.139 36.7633 235.683 37.0552C235.251 37.3411 234.794 37.5847 234.314 37.7861C234.241 38.5093 234.172 39.2922 234.106 40.1347C234.041 40.9773 233.981 41.7941 233.926 42.5853C234.581 42.3127 235.167 42.0101 235.684 41.6773C236.196 41.3219 236.682 40.9613 237.142 40.5954C237.624 40.2234 238.084 39.8575 238.522 39.4976C238.976 39.1091 239.458 38.7371 239.97 38.3817ZM243.811 27.4526C243.842 26.9347 243.982 26.4605 244.231 26.0299C244.502 25.5933 244.811 25.2072 245.158 24.8716C245.521 24.5073 245.908 24.1853 246.318 23.9055C246.729 23.6257 247.122 23.3746 247.499 23.1522C248.302 22.5247 249.167 21.9047 250.095 21.2921C251.039 20.6509 252.007 20.0518 252.998 19.4951C254.012 18.9322 255.076 18.4652 256.189 18.094C257.297 17.7001 258.522 17.5175 259.864 17.5461C259.993 17.7543 260.152 17.942 260.343 18.1094C260.533 18.2768 260.724 18.4441 260.914 18.6115C261.127 18.7727 261.318 18.9401 261.485 19.1135C261.647 19.2643 261.767 19.4385 261.844 19.6362C262.125 19.7793 262.367 19.9572 262.569 20.1698C262.766 20.3598 262.87 20.6594 262.883 21.0685C262.705 21.3102 262.524 21.5407 262.34 21.7598C262.173 21.9503 261.98 22.1354 261.761 22.3154C260.869 22.3361 260.002 22.4956 259.16 22.794C258.317 23.0925 257.563 23.3553 256.896 23.5826C256.637 23.4334 256.361 23.3983 256.067 23.4771C255.795 23.5499 255.513 23.6741 255.22 23.8495C254.95 24.019 254.669 24.1914 254.376 24.3669C254.106 24.5363 253.829 24.6348 253.545 24.6623C253.368 24.904 253.118 25.1044 252.797 25.2633C252.492 25.3935 252.153 25.5328 251.78 25.6812C251.788 25.8005 251.832 25.8736 251.912 25.9007C251.986 25.9051 252.015 25.97 252 26.0954C252.179 26.2174 252.379 26.2851 252.601 26.2985C252.845 26.3057 253.09 26.313 253.335 26.3202C253.602 26.3214 253.841 26.3543 254.053 26.419C254.258 26.461 254.425 26.5861 254.554 26.7943C254.893 26.7033 255.209 26.7037 255.5 26.7955C255.792 26.8872 256.047 27.025 256.266 27.209C256.485 27.3929 256.665 27.6116 256.806 27.8651C256.963 28.0898 257.069 28.3041 257.124 28.5078C257.24 28.6707 257.341 28.7288 257.425 28.6818C257.51 28.6349 257.624 28.6529 257.767 28.7358C257.914 29.0119 258.166 29.272 258.522 29.5162C258.873 29.7377 259.176 30.0083 259.431 30.3281C259.628 30.8819 259.799 31.3822 259.943 31.8289C260.08 32.253 260.119 32.7157 260.06 33.217C259.945 34.1456 259.669 35.0201 259.234 35.8404C258.821 36.6546 258.3 37.4252 257.67 38.1522C257.056 38.8504 256.368 39.4959 255.604 40.0886C254.841 40.6814 254.085 41.2114 253.337 41.6788C253.241 41.6805 253.15 41.7047 253.065 41.7516C252.981 41.7985 252.943 41.748 252.952 41.6C252.813 41.807 252.637 41.9635 252.423 42.0694C252.231 42.1693 252.008 42.2413 251.753 42.2854C251.504 42.3521 251.24 42.4106 250.962 42.4607C250.707 42.5048 250.473 42.5798 250.258 42.6857C250.058 42.5697 249.868 42.4507 249.69 42.3286C249.54 42.2231 249.401 42.0663 249.272 41.8581C249.159 41.8884 249.087 41.847 249.057 41.7338C249.049 41.6145 249 41.567 248.91 41.5913C248.985 41.3285 249.008 41.1888 248.979 41.1723C248.967 41.127 248.924 41.1021 248.85 41.0977C248.799 41.0872 248.748 41.0767 248.696 41.0662C248.639 41.033 248.612 40.9794 248.617 40.9055C248.659 40.7001 248.638 40.4872 248.555 40.2669C248.465 40.024 248.376 39.781 248.287 39.538C248.197 39.2951 248.145 39.0543 248.13 38.8158C248.137 38.5712 248.258 38.3446 248.493 38.136C249.287 38.0203 250.006 37.8035 250.649 37.4857C251.308 37.1392 251.907 36.7482 252.445 36.3128C252.984 35.8773 253.482 35.4283 253.941 34.9658C254.422 34.4972 254.9 34.0656 255.377 33.671C255.39 33.449 255.435 33.255 255.512 33.0888C255.612 32.9166 255.714 32.7557 255.82 32.6061C255.925 32.4565 256.016 32.2986 256.093 32.1325C256.17 31.9663 256.204 31.7753 256.194 31.5594C256.174 31.3948 256.105 31.3164 255.986 31.3241C255.883 31.3031 255.813 31.2247 255.777 31.0888L255.376 31.0871C254.879 30.9533 254.338 30.88 253.752 30.8671C253.16 30.8315 252.645 30.7635 252.205 30.6628C251.993 30.8654 251.764 30.9631 251.519 30.9558C251.297 30.9425 251.008 30.9474 250.65 30.9704C249.868 31.1314 249.1 31.2523 248.345 31.3333C247.613 31.4081 246.879 31.3863 246.144 31.268C246.068 31.1669 245.984 31.0802 245.892 31.0078C245.8 30.9355 245.669 30.9462 245.5 31.04C245.316 30.8953 245.134 30.7619 244.956 30.6398C244.772 30.4951 244.596 30.336 244.428 30.1626C244.4 29.8788 244.374 29.6433 244.348 29.4561C244.316 29.2463 244.196 29.0721 243.989 28.9335C244.001 28.6149 244.005 28.359 244.002 28.1657C243.999 27.9725 243.935 27.7348 243.811 27.4526ZM270.055 34.2513C270.35 34.9001 270.447 35.4443 270.347 35.8837C270.269 36.3171 270.073 36.6729 269.759 36.951C269.474 37.2458 269.108 37.4651 268.661 37.6091C268.215 37.7531 267.779 37.8457 267.353 37.8869C267.042 37.6307 266.732 37.2891 266.423 36.8622C266.115 36.4353 265.814 35.9941 265.522 35.5385C265.224 35.0602 264.941 34.5903 264.672 34.1286C264.425 33.6609 264.205 33.2467 264.011 32.8861C264.051 32.5842 264.037 32.2603 263.969 31.9147C263.917 31.5403 263.843 31.172 263.746 30.8098C263.671 30.4415 263.586 30.0763 263.489 29.714C263.408 29.3231 263.345 28.9518 263.299 28.6001C263.203 27.6068 263.187 26.6406 263.251 25.7014C263.337 24.7562 263.346 23.7953 263.279 22.8185C263.27 22.6027 263.195 22.4163 263.056 22.2595C262.94 22.0965 262.883 21.9298 262.886 21.7592C262.884 21.6626 262.937 21.5878 263.044 21.5348C263.145 21.4592 263.192 21.3618 263.184 21.2425C263.185 20.9753 263.142 20.7685 263.054 20.6221C262.989 20.4697 262.983 20.2652 263.035 20.0085C263.1 19.797 263.166 19.5003 263.234 19.1182C263.318 18.7075 263.286 18.3157 263.137 17.943C263.305 17.7526 263.454 17.5425 263.587 17.3129C263.72 17.0833 263.858 16.8763 264.003 16.6919C264.164 16.4788 264.343 16.2854 264.539 16.1115C264.758 15.9316 265.037 15.7961 265.376 15.7051C265.618 15.883 265.798 16.1017 265.916 16.3612C266.057 16.6147 266.186 16.8712 266.304 17.1307C266.445 17.3842 266.605 17.6203 266.785 17.839C266.959 18.0351 267.2 18.1646 267.508 18.2276C267.557 18.4088 267.617 18.6351 267.69 18.9068C267.763 19.1785 267.847 19.4471 267.943 19.7127C268.032 19.9557 268.141 20.1812 268.269 20.3894C268.415 20.5689 268.587 20.6684 268.786 20.6877C268.67 21.8836 268.573 23.0621 268.496 24.2232C268.441 25.3782 268.447 26.5294 268.511 27.6767C268.57 28.8014 268.711 29.9161 268.934 31.021C269.18 32.1198 269.554 33.1966 270.055 34.2513ZM289.576 14.0615C289.01 14.2132 288.411 14.4222 287.779 14.6887C287.141 14.9325 286.517 15.1846 285.907 15.4451C285.473 15.6343 285.046 15.8092 284.628 15.9697C284.233 16.1242 283.868 16.2582 283.535 16.3719C283.51 16.9124 283.47 17.3963 283.414 17.8236C283.359 18.2509 283.289 18.67 283.205 19.0807C283.127 19.5141 283.064 19.9558 283.014 20.4058C282.982 20.827 282.958 21.2822 282.944 21.7714C282.814 22.1943 282.713 22.5854 282.639 22.9448C282.582 23.2755 282.56 23.6455 282.573 24.0546C282.392 24.467 282.285 24.8838 282.253 25.305C282.214 25.7036 282.197 26.0479 282.202 26.3378L282.175 26.7817C282.076 26.9539 282.027 27.0883 282.028 27.1849C282.024 27.2589 281.985 27.342 281.913 27.4342C281.957 27.6893 281.945 27.9595 281.876 28.245C281.861 28.3703 281.857 28.4926 281.865 28.6118C281.866 28.7085 281.873 28.7794 281.885 28.8247C281.946 29.0511 281.929 29.2134 281.834 29.3116C281.887 29.4188 281.92 29.5433 281.934 29.6852C281.942 29.8044 281.949 29.9237 281.957 30.043C281.962 30.3328 281.997 30.554 282.062 30.7064C282.154 30.7787 282.232 30.8428 282.295 30.8986C282.382 30.9483 282.451 31.0267 282.504 31.1338C282.664 31.188 282.781 31.2173 282.855 31.2217C282.964 31.2654 283.121 31.3082 283.326 31.3503L283.723 31.608C284.012 32.2342 284.05 32.7821 283.836 33.2519C283.612 33.7731 283.092 34.1428 282.277 34.3612L281.869 34.4704C281.726 34.3875 281.634 34.3152 281.593 34.2533C281.394 34.2339 281.231 34.2168 281.106 34.2018C280.981 34.1869 280.854 34.1236 280.728 34.012C280.397 33.9551 280.129 33.9056 279.923 33.8635L279.572 33.7756C279.506 33.5266 279.469 33.3908 279.463 33.3681C279.25 33.2068 279.065 33.0138 278.908 32.7891C278.773 32.5582 278.65 32.3244 278.538 32.0875C278.438 31.8959 278.33 31.7186 278.213 31.5557C278.119 31.3867 278.009 31.2464 277.882 31.1349C277.485 29.8339 277.312 28.6913 277.364 27.7068C277.415 26.7224 277.488 25.7689 277.58 24.8464C277.64 24.3451 277.7 23.8438 277.759 23.3425C277.813 22.8185 277.841 22.2893 277.844 21.7549L278.058 21.3334C278.12 20.9287 278.165 20.601 278.195 20.3504C278.242 20.071 278.288 19.7917 278.335 19.5123C278.36 19.3356 278.377 19.1733 278.386 19.0254C278.412 18.8487 278.432 18.6977 278.447 18.5724C278.311 18.6088 278.189 18.6534 278.082 18.7064C277.969 18.7367 277.859 18.7784 277.752 18.8314C277.622 18.8904 277.504 18.9464 277.396 18.9994C277.283 19.0297 277.17 19.06 277.057 19.0904C276.898 19.1328 276.782 19.1518 276.708 19.1474C276.489 19.3273 276.233 19.4567 275.939 19.5356L275.599 19.6265C275.531 19.6447 275.463 19.6629 275.395 19.6811C275.344 19.6706 275.296 19.6714 275.25 19.6836C275.024 19.7442 274.852 19.8267 274.734 19.931C274.463 20.0038 274.202 20.0736 273.953 20.1403L273.614 20.2313C273.568 20.2434 273.515 20.2699 273.453 20.3108C273.385 20.329 273.329 20.3441 273.283 20.3563C273.125 20.3987 272.952 20.4329 272.765 20.4588C272.572 20.462 272.358 20.4344 272.124 20.3758C271.755 20.0863 271.522 19.9424 271.426 19.9441L271.011 19.6185C270.952 19.4887 270.885 19.3733 270.809 19.2722C270.727 19.1485 270.643 19.0135 270.555 18.8671C270.404 18.665 270.249 18.4516 270.092 18.2268C269.951 17.9733 269.833 17.6655 269.735 17.3033C269.71 17.1161 269.718 16.9681 269.762 16.8594C269.806 16.7506 269.841 16.6562 269.868 16.5762L269.834 16.0395L270.284 15.9552L271.235 15.7004C271.959 15.5063 272.689 15.2865 273.424 15.041C274.153 14.7729 274.904 14.4988 275.679 14.2186C276.119 14.052 276.56 13.8854 277.001 13.7188C277.464 13.5461 277.938 13.3704 278.424 13.1917C278.46 12.9636 278.499 12.747 278.541 12.5416L278.835 12.2808C279.237 12.149 279.535 12.1297 279.73 12.2231C279.941 12.2878 280.119 12.3615 280.262 12.4444C280.748 12.2657 281.234 12.0869 281.72 11.9082C282.223 11.7008 282.722 11.482 283.219 11.2519C283.958 10.9325 284.7 10.6244 285.446 10.3276C286.214 10.0247 286.96 9.77622 287.685 9.5821C288.002 9.49718 288.31 9.4266 288.611 9.37038C288.911 9.31416 289.192 9.27533 289.453 9.25388L289.856 9.4006C289.96 9.51823 290.084 9.61848 290.228 9.70135C290.394 9.77814 290.56 9.85494 290.726 9.93174C291.065 10.108 291.415 10.3295 291.778 10.5963C292.141 10.8631 292.376 11.3338 292.484 12.0086C292.376 12.3287 292.282 12.5236 292.204 12.5932L292.007 13.0826L291.659 13.1396C291.523 13.176 291.404 13.232 291.303 13.3076C291.196 13.3606 291.092 13.4248 290.991 13.5005C290.913 13.57 290.834 13.6395 290.756 13.7091C290.671 13.756 290.576 13.8059 290.468 13.8589C290.265 13.9135 290.095 13.959 289.959 13.9954C289.84 14.0031 289.712 14.0251 289.576 14.0615ZM305.13 6.90936C305.195 7.06176 305.229 7.18628 305.23 7.2829C305.249 7.35081 305.255 7.42176 305.251 7.49575C305.269 7.56366 305.29 7.6429 305.315 7.73345C305.333 7.80137 305.386 7.9085 305.474 8.05484C305.204 8.95195 304.792 9.63258 304.237 10.0967C303.699 10.5322 303.086 10.9149 302.398 11.2448C301.703 11.5521 300.99 11.8768 300.256 12.2189C299.546 12.5549 298.877 13.0494 298.252 13.7024C297.927 13.668 297.655 13.7408 297.437 13.9208C297.241 14.0946 296.91 14.2196 296.445 14.2956C296.346 14.4678 296.203 14.6152 296.018 14.7377C295.826 14.8376 295.638 14.9488 295.452 15.0713C295.597 15.2508 295.689 15.4567 295.727 15.6892C295.781 15.893 295.861 16.0536 295.965 16.1713C296.776 16.0269 297.644 15.782 298.571 15.4367C299.52 15.0853 300.456 14.7739 301.378 14.5026C301.431 14.6097 301.441 14.692 301.408 14.7494C301.368 14.7841 301.372 14.8438 301.419 14.9283C301.608 14.999 301.806 15.1037 302.013 15.2423C302.214 15.3584 302.415 15.4744 302.616 15.5904C302.817 15.7064 303.011 15.7998 303.2 15.8705C303.406 15.9125 303.618 15.8919 303.839 15.8086C303.978 15.9654 304.089 16.154 304.172 16.3743C304.272 16.5659 304.307 16.7871 304.277 17.0377C303.982 17.3838 303.689 17.7412 303.4 18.1099C303.104 18.456 302.78 18.7855 302.427 19.0985C302.097 19.4054 301.724 19.6874 301.307 19.9445C300.908 20.173 300.433 20.3487 299.884 20.4716C299.77 20.502 299.68 20.5262 299.612 20.5444C299.567 20.5565 299.49 20.5408 299.381 20.4971C299.23 20.6589 298.979 20.7626 298.627 20.8083C298.298 20.8479 298.058 20.9486 297.907 21.1103C297.628 21.0639 297.31 21.1005 296.954 21.2202C296.614 21.3112 296.297 21.3478 296.001 21.33C295.766 21.9025 295.574 22.4998 295.425 23.122C295.277 23.7442 295.171 24.3913 295.108 25.0632C295.909 24.9701 296.555 24.8456 297.047 24.6895C297.561 24.5273 298.039 24.3629 298.479 24.1963C298.914 24.0071 299.363 23.8261 299.826 23.6535C300.283 23.4582 300.877 23.2748 301.608 23.1033C301.994 22.733 302.483 22.4319 303.076 22.2002C303.686 21.9398 304.227 21.6493 304.699 21.3287C304.898 21.3481 305.09 21.4301 305.275 21.5748C305.453 21.6969 305.62 21.822 305.776 21.9502C305.948 22.0496 306.117 22.1377 306.283 22.2145C306.449 22.2913 306.631 22.2911 306.829 22.2139C306.944 22.2801 307.031 22.3782 307.09 22.5079C307.165 22.609 307.23 22.7131 307.283 22.8202C307.336 22.9274 307.397 23.0201 307.466 23.0986C307.552 23.1483 307.66 23.1436 307.79 23.0846C307.651 23.9227 307.409 24.6061 307.066 25.1349C306.739 25.635 306.319 26.0628 305.808 26.4182C305.297 26.7736 304.705 27.1019 304.034 27.4032C303.385 27.6983 302.663 28.0374 301.868 28.4203C301.676 28.5202 301.503 28.5544 301.349 28.5228C301.201 28.514 301.037 28.5338 300.856 28.5823C300.365 28.835 299.77 29.1037 299.07 29.3884C298.37 29.6731 297.643 29.9042 296.89 30.0817C296.137 30.2592 295.396 30.3484 294.669 30.3493C293.947 30.3728 293.314 30.2271 292.768 29.9123C292.545 29.8023 292.371 29.6546 292.249 29.469C292.143 29.2548 291.95 29.1244 291.671 29.0779C291.57 28.7897 291.436 28.4736 291.271 28.1295C291.106 27.7855 290.938 27.4302 290.767 27.0635C290.59 26.6742 290.427 26.2932 290.279 25.9205C290.153 25.5417 290.082 25.1847 290.065 24.8496C290.042 24.4918 290.096 24.1497 290.227 23.8235C290.38 23.4912 290.381 23.1756 290.228 22.8769C290.335 22.8239 290.388 22.7491 290.386 22.6525C290.378 22.5332 290.457 22.4637 290.621 22.4439C290.648 22 290.692 21.5757 290.753 21.171C290.815 20.7663 290.879 20.3729 290.947 19.9909C291.037 19.6028 291.116 19.2177 291.183 18.8357C291.267 18.4249 291.331 17.9832 291.374 17.5106C290.978 17.3013 290.656 17.048 290.406 16.7509C290.173 16.4251 289.977 16.1014 289.819 15.7801C289.654 15.436 289.5 15.089 289.358 14.7389C289.209 14.3662 289.027 14.0025 288.81 13.648C288.946 13.2478 289.145 12.9033 289.407 12.6146C289.686 12.2972 290 12.0191 290.348 11.7801C290.697 11.5412 291.085 11.3157 291.514 11.1039C291.942 10.892 292.39 10.6627 292.858 10.4161C293.685 9.87913 294.428 9.4374 295.087 9.09088C295.769 8.73829 296.437 8.42573 297.092 8.15319C297.764 7.85195 298.461 7.55596 299.184 7.26522C299.907 6.97449 300.719 6.61118 301.622 6.17529C301.88 6.32445 302.1 6.37476 302.281 6.32623C302.317 6.09822 302.403 6.01432 302.541 6.07455C302.695 6.10607 302.733 6.02299 302.656 5.8253C302.986 6.1495 303.356 6.40194 303.769 6.58262C304.198 6.73459 304.652 6.8435 305.13 6.90936Z" fill="white"/>
</svg>
