<svg width="22" height="22" viewBox="0 0 22 22" fill="none" xmlns="http://www.w3.org/2000/svg">
<path d="M10.5967 8.13072V15.5832H18.6267C20.3225 15.464 21.0833 14.419 21.0833 13.1357C21.0833 11.779 20.0567 10.6882 18.6817 10.6882C18.3333 10.6882 18.04 10.7615 17.7375 10.8899C17.5175 8.74488 15.6933 7.06738 13.4475 7.06738C12.375 7.06738 11.3575 7.47072 10.5967 8.13072ZM9.79 9.06572C9.51501 8.90072 9.22167 8.77238 8.90084 8.70822V15.5832H10.175V8.56155C10.0375 8.70822 9.90917 8.89155 9.79 9.06572ZM7.63584 8.57072V15.5832H8.47917V8.59822C8.305 8.57072 8.13084 8.56155 7.9475 8.56155C7.8375 8.56155 7.73667 8.56155 7.63584 8.57072ZM5.95834 9.16655V15.5832H6.7925V8.74488C6.49 8.84572 6.20584 8.99238 5.95834 9.16655ZM4.4275 11.4582C4.3725 11.4582 4.3175 11.4032 4.25334 11.3757V15.5832H5.09667V9.95488C4.7575 10.3949 4.52834 10.9174 4.4275 11.4582ZM2.55751 11.2015V15.5007C2.75001 15.5557 2.97001 15.5832 3.20834 15.5832H3.41001V11.1282C3.33667 11.119 3.26334 11.1099 3.20834 11.1099C2.97001 11.1099 2.75001 11.1465 2.55751 11.2015ZM0.916672 13.3465C0.916672 14.034 1.22834 14.639 1.71417 15.0515V11.6507C1.22834 12.054 0.916672 12.6682 0.916672 13.3465Z" fill="#FF0000"/>
</svg>
