<svg width="22" height="22" viewBox="0 0 22 22" fill="none" xmlns="http://www.w3.org/2000/svg">
<path d="M16.4083 9.99183C13.475 8.25016 8.57083 8.06683 5.77499 8.93766C5.31666 9.07516 4.85833 8.80016 4.72083 8.38766C4.58333 7.92933 4.85833 7.471 5.27083 7.3335C8.52499 6.371 13.8875 6.55433 17.2792 8.571C17.6917 8.80016 17.8292 9.35016 17.6 9.76266C17.3708 10.0835 16.8208 10.221 16.4083 9.99183ZM16.3167 12.5585C16.0875 12.8793 15.675 13.0168 15.3542 12.7877C12.8792 11.2752 9.12083 10.8168 6.23333 11.7335C5.86666 11.8252 5.45416 11.6418 5.36249 11.2752C5.27083 10.9085 5.45416 10.496 5.82083 10.4043C9.16666 9.396 13.2917 9.90016 16.1333 11.6418C16.4083 11.7793 16.5458 12.2377 16.3167 12.5585ZM15.2167 15.0793C15.0333 15.3543 14.7125 15.446 14.4375 15.2627C12.2833 13.9335 9.57916 13.6585 6.37083 14.3918C6.04999 14.4835 5.77499 14.2543 5.68333 13.9793C5.59166 13.6585 5.82083 13.3835 6.09583 13.2918C9.57916 12.5127 12.6042 12.8335 14.9875 14.3002C15.3083 14.4377 15.3542 14.8043 15.2167 15.0793ZM11 1.8335C9.79621 1.8335 8.60421 2.0706 7.49206 2.53127C6.37991 2.99194 5.36939 3.66715 4.51818 4.51835C2.7991 6.23743 1.83333 8.56901 1.83333 11.0002C1.83333 13.4313 2.7991 15.7629 4.51818 17.482C5.36939 18.3332 6.37991 19.0084 7.49206 19.4691C8.60421 19.9297 9.79621 20.1668 11 20.1668C13.4311 20.1668 15.7627 19.2011 17.4818 17.482C19.2009 15.7629 20.1667 13.4313 20.1667 11.0002C20.1667 9.79638 19.9296 8.60438 19.4689 7.49223C19.0082 6.38008 18.333 5.36955 17.4818 4.51835C16.6306 3.66715 15.6201 2.99194 14.5079 2.53127C13.3958 2.0706 12.2038 1.8335 11 1.8335Z" fill="#FF0000"/>
</svg>
