<svg width="22" height="22" viewBox="0 0 22 22" fill="none" xmlns="http://www.w3.org/2000/svg">
<path d="M11.9423 1.83414C12.6113 1.83157 13.2802 1.83829 13.9489 1.8543L14.1268 1.86072C14.3321 1.86805 14.5347 1.87722 14.7794 1.88822C15.7548 1.93405 16.4203 2.08805 17.0042 2.31447C17.6092 2.5473 18.1188 2.86264 18.6285 3.3723C19.0945 3.83027 19.4552 4.38425 19.6854 4.99572C19.9118 5.57964 20.0658 6.24605 20.1117 7.22139C20.1227 7.46522 20.1318 7.66872 20.1392 7.87405L20.1447 8.05189C20.161 8.72031 20.168 9.38893 20.1658 10.0576L20.1667 10.7414V11.9422C20.1689 12.6111 20.1619 13.2801 20.1456 13.9488L20.1401 14.1266C20.1328 14.332 20.1236 14.5346 20.1126 14.7793C20.0668 15.7546 19.9109 16.4201 19.6854 17.0041C19.4559 17.6162 19.0952 18.1706 18.6285 18.6284C18.1701 19.0943 17.6159 19.455 17.0042 19.6853C16.4203 19.9117 15.7548 20.0657 14.7794 20.1116C14.5347 20.1226 14.3321 20.1317 14.1268 20.139L13.9489 20.1446C13.2802 20.1608 12.6113 20.1679 11.9423 20.1656L11.2585 20.1666H10.0586C9.38966 20.1688 8.72074 20.1618 8.05201 20.1455L7.87417 20.14C7.65656 20.1321 7.439 20.1229 7.2215 20.1125C6.24617 20.0666 5.58067 19.9108 4.99584 19.6853C4.38413 19.4555 3.83006 19.0948 3.37242 18.6284C2.90588 18.1703 2.54488 17.616 2.31459 17.0041C2.08817 16.4201 1.93417 15.7546 1.88834 14.7793C1.87813 14.5618 1.86896 14.3442 1.86084 14.1266L1.85626 13.9488C1.83936 13.2801 1.83172 12.6112 1.83334 11.9422V10.0576C1.83078 9.38894 1.8375 8.72032 1.85351 8.05189L1.85992 7.87405C1.86726 7.66872 1.87642 7.46522 1.88742 7.22139C1.93326 6.24513 2.08725 5.58055 2.31367 4.99572C2.5441 4.38395 2.90581 3.83013 3.37334 3.37322C3.83066 2.90641 4.38439 2.54508 4.99584 2.31447C5.58067 2.08805 6.24525 1.93405 7.2215 1.88822L7.87417 1.86072L8.05201 1.85614C8.72042 1.83924 9.38904 1.8316 10.0577 1.83322L11.9423 1.83414ZM11 6.41747C10.3927 6.40888 9.78978 6.52107 9.22623 6.74753C8.66269 6.97399 8.14976 7.31019 7.71728 7.7366C7.2848 8.16301 6.94137 8.67113 6.70697 9.23142C6.47256 9.79171 6.35186 10.393 6.35186 11.0003C6.35186 11.6077 6.47256 12.209 6.70697 12.7693C6.94137 13.3296 7.2848 13.8377 7.71728 14.2641C8.14976 14.6905 8.66269 15.0267 9.22623 15.2532C9.78978 15.4796 10.3927 15.5918 11 15.5832C12.2156 15.5832 13.3814 15.1003 14.2409 14.2408C15.1005 13.3812 15.5833 12.2155 15.5833 10.9999C15.5833 9.78431 15.1005 8.61852 14.2409 7.75898C13.3814 6.89944 12.2156 6.41747 11 6.41747ZM11 8.2508C11.3653 8.24407 11.7283 8.3102 12.0677 8.44532C12.4072 8.58045 12.7163 8.78186 12.9771 9.0378C13.2378 9.29374 13.4449 9.59906 13.5863 9.93595C13.7277 10.2728 13.8006 10.6345 13.8007 10.9999C13.8007 11.3652 13.728 11.7269 13.5867 12.0639C13.4454 12.4008 13.2384 12.7062 12.9777 12.9622C12.7171 13.2182 12.408 13.4198 12.0686 13.555C11.7292 13.6902 11.3662 13.7565 11.0009 13.7499C10.2716 13.7499 9.5721 13.4602 9.05638 12.9444C8.54065 12.4287 8.25092 11.7292 8.25092 10.9999C8.25092 10.2705 8.54065 9.57107 9.05638 9.05534C9.5721 8.53962 10.2716 8.24989 11.0009 8.24989L11 8.2508ZM15.8125 5.04247C15.5168 5.0543 15.2371 5.18011 15.0321 5.39353C14.827 5.60694 14.7125 5.89143 14.7125 6.18739C14.7125 6.48335 14.827 6.76783 15.0321 6.98124C15.2371 7.19466 15.5168 7.32047 15.8125 7.3323C16.1164 7.3323 16.4078 7.21158 16.6227 6.9967C16.8376 6.78181 16.9583 6.49036 16.9583 6.18647C16.9583 5.88257 16.8376 5.59113 16.6227 5.37624C16.4078 5.16136 16.1164 5.04064 15.8125 5.04064V5.04247Z" fill="#FF0000"/>
</svg>
