<svg width="20" height="14" viewBox="0 0 20 14" fill="none" xmlns="http://www.w3.org/2000/svg">
<path d="M8.16666 9.75016L12.9242 7.00016L8.16666 4.25016V9.75016ZM18.7633 2.57266C18.8825 3.0035 18.965 3.581 19.02 4.31433C19.0842 5.04766 19.1117 5.68016 19.1117 6.23016L19.1667 7.00016C19.1667 9.00766 19.02 10.4835 18.7633 11.4277C18.5342 12.2527 18.0025 12.7843 17.1775 13.0135C16.7467 13.1327 15.9583 13.2152 14.7483 13.2702C13.5567 13.3343 12.4658 13.3618 11.4575 13.3618L9.99999 13.4168C6.15916 13.4168 3.76666 13.2702 2.82249 13.0135C1.99749 12.7843 1.46583 12.2527 1.23666 11.4277C1.11749 10.9968 1.03499 10.4193 0.979995 9.686C0.915828 8.95266 0.888328 8.32016 0.888328 7.77016L0.833328 7.00016C0.833328 4.99266 0.979995 3.51683 1.23666 2.57266C1.46583 1.74766 1.99749 1.216 2.82249 0.986829C3.25333 0.867663 4.04166 0.785163 5.25166 0.730163C6.44333 0.665996 7.53416 0.638496 8.54249 0.638496L9.99999 0.583496C13.8408 0.583496 16.2333 0.730163 17.1775 0.986829C18.0025 1.216 18.5342 1.74766 18.7633 2.57266Z" fill="#FF0000"/>
</svg>
